<?xml version="1.0" standalone="no"?>
<!DOCTYPE svg PUBLIC "-//W3C//DTD SVG 20010904//EN"
 "http://www.w3.org/TR/2001/REC-SVG-20010904/DTD/svg10.dtd">
<svg version="1.0" xmlns="http://www.w3.org/2000/svg"
 width="2000.000000pt" height="2000.000000pt" viewBox="0 0 2000.000000 2000.000000"
 preserveAspectRatio="xMidYMid meet">

<g transform="translate(0.000000,2000.000000) scale(0.100000,-0.100000)"
fill="#000000" stroke="none">
<path d="M6825 13764 c-723 -68 -1194 -356 -1636 -999 -131 -190 -283 -467
-414 -755 -36 -80 -72 -159 -80 -176 -102 -221 -374 -910 -555 -1404 -85 -233
-194 -516 -337 -874 -101 -255 -123 -305 -221 -516 -119 -257 -295 -517 -443
-654 -193 -178 -391 -247 -756 -263 l-143 -6 0 -954 0 -953 153 0 c83 0 258 9
387 20 868 71 1368 240 1859 627 126 99 375 350 485 488 221 278 484 719 640
1075 16 36 40 90 53 120 13 30 28 64 33 75 10 21 99 245 132 330 76 196 216
615 278 825 12 41 25 86 30 100 5 14 18 59 30 100 12 41 28 95 36 120 7 25 52
176 99 335 282 949 383 1218 505 1345 30 32 63 62 73 67 16 8 16 12 3 44 -42
101 -70 468 -70 919 0 452 26 800 70 925 7 22 14 43 14 48 0 9 -55 7 -225 -9z"/>
<path d="M7295 13755 c-28 -27 -39 -63 -59 -185 -31 -197 -41 -375 -41 -760 0
-385 10 -563 41 -760 23 -142 29 -156 105 -230 49 -47 77 -84 98 -131 116
-256 155 -650 165 -1664 11 -974 58 -1470 191 -2020 147 -601 347 -994 660
-1293 208 -198 432 -319 755 -406 409 -110 965 -127 1400 -42 346 68 601 175
815 342 522 407 821 1159 929 2334 26 281 37 545 43 1090 l6 525 -25 -27 c-82
-86 -348 -150 -736 -177 -209 -15 -377 -14 -599 4 -321 26 -561 79 -652 145
-29 21 -43 27 -46 18 -2 -7 -6 -404 -8 -883 -4 -894 -9 -1004 -47 -1189 -36
-172 -75 -251 -148 -293 -42 -25 -56 -28 -142 -28 -103 0 -131 9 -184 62 -60
59 -102 196 -132 430 -13 105 -18 301 -24 1098 -8 944 -12 1073 -45 1375 -74
670 -248 1244 -513 1685 -362 602 -880 912 -1655 988 -126 12 -129 12 -152 -8z"/>
<path d="M12570 13764 c-336 -33 -649 -117 -889 -238 -496 -250 -848 -714
-1086 -1431 -111 -335 -202 -813 -222 -1157 l-6 -117 39 -39 c116 -116 572
-191 1079 -179 444 11 783 78 888 176 l38 36 20 220 c27 301 43 402 89 545 58
181 150 277 276 288 189 15 302 -104 434 -453 46 -120 124 -355 160 -477 l23
-78 1142 0 1143 0 -58 153 c-77 204 -207 529 -246 614 -8 17 -14 33 -14 36 0
3 -14 36 -31 74 -17 37 -39 87 -49 109 -11 23 -40 88 -65 143 -144 320 -325
645 -478 856 -314 432 -662 698 -1082 825 -313 95 -733 131 -1105 94z"/>
<path d="M13504 10563 c3 -10 15 -49 26 -88 12 -38 34 -113 50 -165 15 -52 38
-129 50 -170 12 -41 25 -86 30 -100 5 -14 18 -59 30 -100 139 -480 356 -1097
495 -1405 15 -33 38 -87 53 -120 42 -96 204 -411 266 -520 486 -840 1096
-1343 1861 -1534 344 -86 881 -151 1248 -151 l147 0 -2 953 -3 952 -140 7
c-221 12 -430 54 -540 110 -230 117 -427 354 -629 758 -132 264 -225 490 -551
1345 l-91 240 -1153 3 c-1095 2 -1152 1 -1147 -15z"/>
</g>
</svg>
